<mxfile host="app.diagrams.net" modified="2020-06-20T22:29:50.788Z" agent="5.0 (Macintosh; Intel Mac OS X 10_15_4) AppleWebKit/605.1.15 (KHTML, like Gecko) Version/13.1 Safari/605.1.15" etag="FL3vpEdCM85kdRD-44Tc" version="13.3.0" type="github">
  <diagram id="6I0OCvxSQrVGMHxT2VVA" name="Page-1">
    <mxGraphModel dx="1351" dy="1036" grid="1" gridSize="10" guides="1" tooltips="1" connect="1" arrows="1" fold="1" page="1" pageScale="1" pageWidth="850" pageHeight="1100" math="0" shadow="0">
      <root>
        <mxCell id="0" />
        <mxCell id="1" parent="0" />
        <mxCell id="nC1duATA6xiUtv2VN2Um-38" value="" style="whiteSpace=wrap;html=1;strokeColor=none;strokeWidth=1;fillColor=#dae8fc;fontSize=14;" parent="1" vertex="1">
          <mxGeometry x="194" y="490" width="1075" height="140" as="geometry" />
        </mxCell>
        <mxCell id="nC1duATA6xiUtv2VN2Um-36" value="" style="whiteSpace=wrap;html=1;strokeColor=none;strokeWidth=1;fillColor=#f5f5f5;fontSize=14;" parent="1" vertex="1">
          <mxGeometry x="194" y="1220" width="1075" height="160" as="geometry" />
        </mxCell>
        <mxCell id="nC1duATA6xiUtv2VN2Um-30" value="" style="whiteSpace=wrap;html=1;strokeColor=none;strokeWidth=1;fillColor=#FFF2CC;fontSize=14;fontColor=#ffffff;" parent="1" vertex="1">
          <mxGeometry x="194" y="850" width="1075" height="140" as="geometry" />
        </mxCell>
        <mxCell id="nC1duATA6xiUtv2VN2Um-2" value="" style="whiteSpace=wrap;html=1;strokeColor=none;strokeWidth=1;fillColor=#f5f5f5;fontSize=14;" parent="1" vertex="1">
          <mxGeometry x="184" y="160" width="1075" height="140" as="geometry" />
        </mxCell>
        <mxCell id="dKdSaXE48SgPbhcamS2K-31" value="" style="whiteSpace=wrap;html=1;strokeColor=none;strokeWidth=1;fillColor=#f5f5f5;fontSize=14;" parent="1" vertex="1">
          <mxGeometry x="194" y="660" width="1075" height="160" as="geometry" />
        </mxCell>
        <mxCell id="dKdSaXE48SgPbhcamS2K-32" value="" style="whiteSpace=wrap;html=1;strokeColor=none;strokeWidth=1;fillColor=#f5f5f5;fontSize=14;" parent="1" vertex="1">
          <mxGeometry x="184" y="330" width="1075" height="140" as="geometry" />
        </mxCell>
        <mxCell id="dKdSaXE48SgPbhcamS2K-54" value="2110&lt;br&gt;F of Data Structure" style="html=1;whiteSpace=wrap;fillColor=#ffcccc;shape=mxgraph.archimate3.application;appType=func;archiType=rounded;fontSize=14;strokeColor=#36393d;" parent="1" vertex="1">
          <mxGeometry x="290" y="362.5" width="150" height="75" as="geometry" />
        </mxCell>
        <mxCell id="dKdSaXE48SgPbhcamS2K-57" value="2610&lt;br&gt;Assembly" style="html=1;whiteSpace=wrap;fillColor=#ffcccc;shape=mxgraph.archimate3.application;appType=proc;archiType=rounded;fontSize=14;strokeColor=#36393d;" parent="1" vertex="1">
          <mxGeometry x="986.5" y="360" width="150" height="75" as="geometry" />
        </mxCell>
        <mxCell id="dKdSaXE48SgPbhcamS2K-61" style="edgeStyle=elbowEdgeStyle;rounded=1;elbow=vertical;html=1;dashed=1;startSize=10;endArrow=block;endFill=0;endSize=10;jettySize=auto;orthogonalLoop=1;strokeColor=#808080;fontSize=14;" parent="1" source="dKdSaXE48SgPbhcamS2K-62" target="nC1duATA6xiUtv2VN2Um-3" edge="1">
          <mxGeometry relative="1" as="geometry">
            <Array as="points">
              <mxPoint x="330" y="130" />
            </Array>
          </mxGeometry>
        </mxCell>
        <mxCell id="dKdSaXE48SgPbhcamS2K-62" value="" style="html=1;whiteSpace=wrap;fillColor=#ffff99;shape=mxgraph.archimate3.actor;fontSize=14;" parent="1" vertex="1">
          <mxGeometry x="110" y="170" width="50" height="95" as="geometry" />
        </mxCell>
        <mxCell id="nC1duATA6xiUtv2VN2Um-3" value="1030" style="html=1;whiteSpace=wrap;fillColor=#d5e8d4;shape=mxgraph.archimate3.application;appType=func;archiType=rounded;fontSize=14;strokeColor=#82b366;" parent="1" vertex="1">
          <mxGeometry x="260" y="190" width="150" height="75" as="geometry" />
        </mxCell>
        <mxCell id="nC1duATA6xiUtv2VN2Um-4" value="1040" style="html=1;whiteSpace=wrap;fillColor=#ffff88;shape=mxgraph.archimate3.application;appType=func;archiType=rounded;fontSize=14;strokeColor=#36393d;" parent="1" vertex="1">
          <mxGeometry x="480" y="190" width="150" height="75" as="geometry" />
        </mxCell>
        <mxCell id="nC1duATA6xiUtv2VN2Um-5" value="" style="endArrow=classic;html=1;exitX=1;exitY=0.5;exitDx=0;exitDy=0;exitPerimeter=0;entryX=0;entryY=0.5;entryDx=0;entryDy=0;entryPerimeter=0;" parent="1" source="nC1duATA6xiUtv2VN2Um-3" target="nC1duATA6xiUtv2VN2Um-4" edge="1">
          <mxGeometry width="50" height="50" relative="1" as="geometry">
            <mxPoint x="640" y="340" as="sourcePoint" />
            <mxPoint x="690" y="290" as="targetPoint" />
          </mxGeometry>
        </mxCell>
        <mxCell id="nC1duATA6xiUtv2VN2Um-6" value="2100" style="html=1;whiteSpace=wrap;fillColor=#d5e8d4;shape=mxgraph.archimate3.application;appType=func;archiType=rounded;fontSize=14;strokeColor=#82b366;" parent="1" vertex="1">
          <mxGeometry x="700" y="190" width="150" height="75" as="geometry" />
        </mxCell>
        <mxCell id="nC1duATA6xiUtv2VN2Um-8" value="" style="endArrow=classic;html=1;exitX=1;exitY=0.5;exitDx=0;exitDy=0;exitPerimeter=0;entryX=0;entryY=0.5;entryDx=0;entryDy=0;entryPerimeter=0;" parent="1" source="nC1duATA6xiUtv2VN2Um-4" target="nC1duATA6xiUtv2VN2Um-6" edge="1">
          <mxGeometry width="50" height="50" relative="1" as="geometry">
            <mxPoint x="640" y="340" as="sourcePoint" />
            <mxPoint x="690" y="290" as="targetPoint" />
          </mxGeometry>
        </mxCell>
        <mxCell id="nC1duATA6xiUtv2VN2Um-14" style="edgeStyle=elbowEdgeStyle;rounded=1;elbow=vertical;html=1;startSize=10;endArrow=open;endFill=0;endSize=10;jettySize=auto;orthogonalLoop=1;strokeColor=#808080;fontSize=14;entryX=0.367;entryY=0.015;exitX=0.25;exitY=1;exitPerimeter=0;entryDx=0;entryDy=0;entryPerimeter=0;exitDx=0;exitDy=0;" parent="1" source="nC1duATA6xiUtv2VN2Um-4" target="dKdSaXE48SgPbhcamS2K-54" edge="1">
          <mxGeometry relative="1" as="geometry">
            <Array as="points">
              <mxPoint x="365" y="310" />
            </Array>
            <mxPoint x="565.7499999999998" y="355.3499999999999" as="sourcePoint" />
            <mxPoint x="462.25" y="265" as="targetPoint" />
          </mxGeometry>
        </mxCell>
        <mxCell id="nC1duATA6xiUtv2VN2Um-15" style="edgeStyle=elbowEdgeStyle;rounded=1;elbow=vertical;html=1;startSize=10;endArrow=open;endFill=0;endSize=10;jettySize=auto;orthogonalLoop=1;strokeColor=#808080;fontSize=14;entryX=0.75;entryY=0;exitX=1;exitY=0.5;exitPerimeter=0;entryDx=0;entryDy=0;entryPerimeter=0;exitDx=0;exitDy=0;" parent="1" source="nC1duATA6xiUtv2VN2Um-6" target="dKdSaXE48SgPbhcamS2K-57" edge="1">
          <mxGeometry relative="1" as="geometry">
            <Array as="points">
              <mxPoint x="1000" y="228" />
            </Array>
            <mxPoint x="1072.4999999999998" y="310.3499999999999" as="sourcePoint" />
            <mxPoint x="969" y="220" as="targetPoint" />
          </mxGeometry>
        </mxCell>
        <mxCell id="nC1duATA6xiUtv2VN2Um-16" value="3110&lt;br&gt;DATA STRUCTURES" style="html=1;whiteSpace=wrap;fillColor=#ffcccc;shape=mxgraph.archimate3.application;appType=func;archiType=rounded;fontSize=14;strokeColor=#36393d;" parent="1" vertex="1">
          <mxGeometry x="220" y="710" width="150" height="75" as="geometry" />
        </mxCell>
        <mxCell id="nC1duATA6xiUtv2VN2Um-18" style="edgeStyle=elbowEdgeStyle;rounded=1;elbow=vertical;html=1;startSize=10;endArrow=open;endFill=0;endSize=10;jettySize=auto;orthogonalLoop=1;strokeColor=#808080;fontSize=14;entryX=0.25;entryY=0;entryDx=0;entryDy=0;entryPerimeter=0;" parent="1" target="nC1duATA6xiUtv2VN2Um-16" edge="1">
          <mxGeometry relative="1" as="geometry">
            <Array as="points">
              <mxPoint x="210" y="390" />
            </Array>
            <mxPoint x="290" y="390" as="sourcePoint" />
            <mxPoint x="239.99999999999994" y="531.125" as="targetPoint" />
          </mxGeometry>
        </mxCell>
        <mxCell id="nC1duATA6xiUtv2VN2Um-19" value="" style="whiteSpace=wrap;html=1;strokeColor=none;strokeWidth=1;fillColor=#f5f5f5;fontSize=14;" parent="1" vertex="1">
          <mxGeometry x="194" y="1020" width="1075" height="160" as="geometry" />
        </mxCell>
        <mxCell id="nC1duATA6xiUtv2VN2Um-20" value="3444" style="html=1;whiteSpace=wrap;fillColor=#ffcccc;shape=mxgraph.archimate3.application;appType=func;archiType=rounded;fontSize=14;strokeColor=#36393d;" parent="1" vertex="1">
          <mxGeometry x="210" y="890" width="150" height="75" as="geometry" />
        </mxCell>
        <mxCell id="nC1duATA6xiUtv2VN2Um-21" style="edgeStyle=elbowEdgeStyle;rounded=1;elbow=vertical;html=1;startSize=10;endArrow=open;endFill=0;endSize=10;jettySize=auto;orthogonalLoop=1;strokeColor=#808080;fontSize=14;entryX=0;entryY=0.5;entryDx=0;entryDy=0;entryPerimeter=0;exitX=0;exitY=0.5;exitDx=0;exitDy=0;exitPerimeter=0;" parent="1" source="nC1duATA6xiUtv2VN2Um-16" target="nC1duATA6xiUtv2VN2Um-20" edge="1">
          <mxGeometry relative="1" as="geometry">
            <Array as="points">
              <mxPoint x="200" y="600" />
            </Array>
            <mxPoint x="339.9999999999998" y="600" as="sourcePoint" />
            <mxPoint x="229.99999999999994" y="741.125" as="targetPoint" />
          </mxGeometry>
        </mxCell>
        <mxCell id="nC1duATA6xiUtv2VN2Um-22" value="3600&lt;br&gt;Prin of Sys Program" style="html=1;whiteSpace=wrap;fillColor=#ffcccc;shape=mxgraph.archimate3.application;appType=proc;archiType=rounded;fontSize=14;strokeColor=#36393d;" parent="1" vertex="1">
          <mxGeometry x="800" y="360" width="150" height="75" as="geometry" />
        </mxCell>
        <mxCell id="nC1duATA6xiUtv2VN2Um-23" style="edgeStyle=elbowEdgeStyle;rounded=1;elbow=vertical;html=1;startSize=10;endArrow=open;endFill=0;endSize=10;jettySize=auto;orthogonalLoop=1;strokeColor=#808080;fontSize=14;entryX=0.367;entryY=0.015;entryDx=0;entryDy=0;entryPerimeter=0;" parent="1" source="nC1duATA6xiUtv2VN2Um-6" edge="1">
          <mxGeometry relative="1" as="geometry">
            <Array as="points">
              <mxPoint x="830" y="320" />
            </Array>
            <mxPoint x="975.9499999999998" y="263.88" as="sourcePoint" />
            <mxPoint x="860" y="360.005" as="targetPoint" />
          </mxGeometry>
        </mxCell>
        <mxCell id="nC1duATA6xiUtv2VN2Um-24" value="4010&lt;br&gt;Ethics" style="html=1;whiteSpace=wrap;fillColor=#ffcccc;shape=mxgraph.archimate3.application;appType=proc;archiType=rounded;fontSize=14;strokeColor=#36393d;" parent="1" vertex="1">
          <mxGeometry x="800" y="710" width="150" height="75" as="geometry" />
        </mxCell>
        <mxCell id="nC1duATA6xiUtv2VN2Um-25" style="edgeStyle=elbowEdgeStyle;rounded=1;elbow=vertical;html=1;startSize=10;endArrow=open;endFill=0;endSize=10;jettySize=auto;orthogonalLoop=1;strokeColor=#808080;fontSize=14;entryX=0.5;entryY=0;entryDx=0;entryDy=0;entryPerimeter=0;exitX=0.5;exitY=1;exitDx=0;exitDy=0;exitPerimeter=0;" parent="1" source="nC1duATA6xiUtv2VN2Um-22" target="nC1duATA6xiUtv2VN2Um-24" edge="1">
          <mxGeometry relative="1" as="geometry">
            <Array as="points">
              <mxPoint x="900" y="490" />
            </Array>
            <mxPoint x="830" y="435" as="sourcePoint" />
            <mxPoint x="860" y="530.0050000000001" as="targetPoint" />
          </mxGeometry>
        </mxCell>
        <mxCell id="nC1duATA6xiUtv2VN2Um-27" style="edgeStyle=elbowEdgeStyle;rounded=1;elbow=vertical;html=1;startSize=10;endArrow=open;endFill=0;endSize=10;jettySize=auto;orthogonalLoop=1;strokeColor=#808080;fontSize=14;entryX=0.5;entryY=0;entryDx=0;entryDy=0;entryPerimeter=0;exitX=0.5;exitY=1;exitDx=0;exitDy=0;exitPerimeter=0;" parent="1" source="nC1duATA6xiUtv2VN2Um-55" edge="1">
          <mxGeometry relative="1" as="geometry">
            <Array as="points" />
            <mxPoint x="430" y="1200" as="sourcePoint" />
            <mxPoint x="305" y="1262.5" as="targetPoint" />
          </mxGeometry>
        </mxCell>
        <mxCell id="nC1duATA6xiUtv2VN2Um-28" value="&lt;font style=&quot;font-size: 21px&quot;&gt;Fall 2020&lt;/font&gt;" style="text;html=1;strokeColor=none;fillColor=none;align=center;verticalAlign=middle;whiteSpace=wrap;rounded=0;opacity=50;" parent="1" vertex="1">
          <mxGeometry x="20" y="369" width="150" height="40" as="geometry" />
        </mxCell>
        <mxCell id="nC1duATA6xiUtv2VN2Um-31" value="&lt;font style=&quot;font-size: 21px&quot;&gt;Winter&lt;/font&gt;" style="text;html=1;strokeColor=none;fillColor=none;align=center;verticalAlign=middle;whiteSpace=wrap;rounded=0;opacity=50;" parent="1" vertex="1">
          <mxGeometry x="20" y="540" width="150" height="40" as="geometry" />
        </mxCell>
        <mxCell id="nC1duATA6xiUtv2VN2Um-32" value="TECMM 2700" style="html=1;whiteSpace=wrap;fillColor=#ffcccc;shape=mxgraph.archimate3.application;appType=func;archiType=rounded;fontSize=14;strokeColor=#36393d;" parent="1" vertex="1">
          <mxGeometry x="470" y="362.5" width="150" height="75" as="geometry" />
        </mxCell>
        <mxCell id="nC1duATA6xiUtv2VN2Um-33" value="&lt;font style=&quot;font-size: 21px&quot;&gt;Spring 2021&lt;/font&gt;" style="text;html=1;strokeColor=none;fillColor=none;align=center;verticalAlign=middle;whiteSpace=wrap;rounded=0;opacity=50;" parent="1" vertex="1">
          <mxGeometry x="20" y="710" width="150" height="40" as="geometry" />
        </mxCell>
        <mxCell id="nC1duATA6xiUtv2VN2Um-34" value="&lt;font style=&quot;font-size: 21px&quot;&gt;Summer 2021&lt;/font&gt;" style="text;html=1;strokeColor=none;fillColor=none;align=center;verticalAlign=middle;whiteSpace=wrap;rounded=0;opacity=50;" parent="1" vertex="1">
          <mxGeometry x="20" y="890" width="150" height="40" as="geometry" />
        </mxCell>
        <mxCell id="nC1duATA6xiUtv2VN2Um-35" value="&lt;font style=&quot;font-size: 21px&quot;&gt;Fall 2021&lt;/font&gt;" style="text;html=1;strokeColor=none;fillColor=none;align=center;verticalAlign=middle;whiteSpace=wrap;rounded=0;opacity=50;" parent="1" vertex="1">
          <mxGeometry x="20" y="1080" width="150" height="40" as="geometry" />
        </mxCell>
        <mxCell id="nC1duATA6xiUtv2VN2Um-37" value="&lt;font style=&quot;font-size: 21px&quot;&gt;Spring 2022&lt;/font&gt;" style="text;html=1;strokeColor=none;fillColor=none;align=center;verticalAlign=middle;whiteSpace=wrap;rounded=0;opacity=50;" parent="1" vertex="1">
          <mxGeometry x="20" y="1260" width="150" height="40" as="geometry" />
        </mxCell>
        <mxCell id="nC1duATA6xiUtv2VN2Um-39" value="Core elective&lt;br&gt;Comp Network" style="html=1;whiteSpace=wrap;fillColor=#e1d5e7;shape=mxgraph.archimate3.application;appType=func;archiType=rounded;fontSize=14;strokeColor=#9673a6;" parent="1" vertex="1">
          <mxGeometry x="400" y="710" width="150" height="75" as="geometry" />
        </mxCell>
        <mxCell id="nC1duATA6xiUtv2VN2Um-40" value="Adv Elective" style="html=1;whiteSpace=wrap;fillColor=#b0e3e6;shape=mxgraph.archimate3.application;appType=func;archiType=rounded;fontSize=14;strokeColor=#0e8088;" parent="1" vertex="1">
          <mxGeometry x="600" y="710" width="150" height="75" as="geometry" />
        </mxCell>
        <mxCell id="nC1duATA6xiUtv2VN2Um-45" value="4110&lt;br&gt;Algorithms" style="html=1;whiteSpace=wrap;fillColor=#ffcccc;shape=mxgraph.archimate3.application;appType=func;archiType=rounded;fontSize=14;strokeColor=#36393d;" parent="1" vertex="1">
          <mxGeometry x="210" y="1070" width="150" height="75" as="geometry" />
        </mxCell>
        <mxCell id="nC1duATA6xiUtv2VN2Um-46" style="edgeStyle=elbowEdgeStyle;rounded=1;elbow=horizontal;html=1;startSize=10;endArrow=open;endFill=0;endSize=10;jettySize=auto;orthogonalLoop=1;strokeColor=#808080;fontSize=14;entryX=0;entryY=0.5;entryDx=0;entryDy=0;entryPerimeter=0;exitX=0;exitY=0.5;exitDx=0;exitDy=0;exitPerimeter=0;" parent="1" source="nC1duATA6xiUtv2VN2Um-16" target="nC1duATA6xiUtv2VN2Um-45" edge="1">
          <mxGeometry relative="1" as="geometry">
            <Array as="points">
              <mxPoint x="170" y="940" />
            </Array>
            <mxPoint x="210" y="750" as="sourcePoint" />
            <mxPoint x="219.99999999999977" y="937.5" as="targetPoint" />
          </mxGeometry>
        </mxCell>
        <mxCell id="nC1duATA6xiUtv2VN2Um-49" value="Core elective&lt;br&gt;Operating system" style="html=1;whiteSpace=wrap;fillColor=#e1d5e7;shape=mxgraph.archimate3.application;appType=func;archiType=rounded;fontSize=14;strokeColor=#9673a6;" parent="1" vertex="1">
          <mxGeometry x="390" y="890" width="150" height="75" as="geometry" />
        </mxCell>
        <mxCell id="nC1duATA6xiUtv2VN2Um-50" value="breadth elective&lt;br&gt;Database" style="html=1;whiteSpace=wrap;shape=mxgraph.archimate3.application;appType=func;archiType=rounded;fontSize=14;fillColor=#cdeb8b;strokeColor=#36393d;" parent="1" vertex="1">
          <mxGeometry x="986.5" y="710" width="150" height="75" as="geometry" />
        </mxCell>
        <mxCell id="nC1duATA6xiUtv2VN2Um-51" value="breadth elective&lt;br&gt;AI" style="html=1;whiteSpace=wrap;fillColor=#cdeb8b;shape=mxgraph.archimate3.application;appType=func;archiType=rounded;fontSize=14;strokeColor=#36393d;" parent="1" vertex="1">
          <mxGeometry x="410" y="1262.5" width="150" height="75" as="geometry" />
        </mxCell>
        <mxCell id="nC1duATA6xiUtv2VN2Um-52" value="Adv Elective" style="html=1;whiteSpace=wrap;fillColor=#b0e3e6;shape=mxgraph.archimate3.application;appType=func;archiType=rounded;fontSize=14;strokeColor=#0e8088;" parent="1" vertex="1">
          <mxGeometry x="570" y="890" width="150" height="75" as="geometry" />
        </mxCell>
        <mxCell id="nC1duATA6xiUtv2VN2Um-53" value="Adv Elective" style="html=1;whiteSpace=wrap;fillColor=#b0e3e6;shape=mxgraph.archimate3.application;appType=func;archiType=rounded;fontSize=14;strokeColor=#0e8088;" parent="1" vertex="1">
          <mxGeometry x="750" y="890" width="150" height="75" as="geometry" />
        </mxCell>
        <mxCell id="nC1duATA6xiUtv2VN2Um-55" value="4901 (Capstone)" style="html=1;whiteSpace=wrap;fillColor=#ffcccc;shape=mxgraph.archimate3.application;appType=func;archiType=rounded;fontSize=14;strokeColor=#36393d;" parent="1" vertex="1">
          <mxGeometry x="420" y="1070" width="150" height="75" as="geometry" />
        </mxCell>
        <mxCell id="nC1duATA6xiUtv2VN2Um-56" style="edgeStyle=elbowEdgeStyle;rounded=1;elbow=vertical;html=1;startSize=10;endArrow=open;endFill=0;endSize=10;jettySize=auto;orthogonalLoop=1;strokeColor=#808080;fontSize=14;entryX=0.441;entryY=-0.004;entryDx=0;entryDy=0;entryPerimeter=0;exitX=0.5;exitY=1;exitDx=0;exitDy=0;exitPerimeter=0;" parent="1" source="nC1duATA6xiUtv2VN2Um-20" target="nC1duATA6xiUtv2VN2Um-55" edge="1">
          <mxGeometry relative="1" as="geometry">
            <Array as="points">
              <mxPoint x="330" y="1020" />
            </Array>
            <mxPoint x="230" y="757.4999999999998" as="sourcePoint" />
            <mxPoint x="220" y="937.4999999999998" as="targetPoint" />
          </mxGeometry>
        </mxCell>
        <mxCell id="nC1duATA6xiUtv2VN2Um-60" value="" style="endArrow=classic;startArrow=classic;html=1;exitX=1;exitY=0.5;exitDx=0;exitDy=0;exitPerimeter=0;entryX=0;entryY=0.5;entryDx=0;entryDy=0;entryPerimeter=0;" parent="1" source="nC1duATA6xiUtv2VN2Um-45" target="nC1duATA6xiUtv2VN2Um-55" edge="1">
          <mxGeometry width="50" height="50" relative="1" as="geometry">
            <mxPoint x="580" y="940" as="sourcePoint" />
            <mxPoint x="630" y="890" as="targetPoint" />
          </mxGeometry>
        </mxCell>
        <mxCell id="nC1duATA6xiUtv2VN2Um-64" style="edgeStyle=elbowEdgeStyle;rounded=1;elbow=vertical;html=1;startSize=10;endArrow=open;endFill=0;endSize=10;jettySize=auto;orthogonalLoop=1;strokeColor=#808080;fontSize=14;entryX=0.5;entryY=0;entryDx=0;entryDy=0;entryPerimeter=0;exitX=0.25;exitY=1;exitDx=0;exitDy=0;exitPerimeter=0;" parent="1" source="nC1duATA6xiUtv2VN2Um-22" target="nC1duATA6xiUtv2VN2Um-39" edge="1">
          <mxGeometry relative="1" as="geometry">
            <Array as="points">
              <mxPoint x="910" y="500" />
            </Array>
            <mxPoint x="885" y="444.9999999999998" as="sourcePoint" />
            <mxPoint x="885" y="719.9999999999998" as="targetPoint" />
          </mxGeometry>
        </mxCell>
        <mxCell id="nC1duATA6xiUtv2VN2Um-65" value="4902 (Capstone)" style="html=1;whiteSpace=wrap;fillColor=#ffcccc;shape=mxgraph.archimate3.application;appType=func;archiType=rounded;fontSize=14;strokeColor=#36393d;" parent="1" vertex="1">
          <mxGeometry x="230" y="1262.5" width="150" height="75" as="geometry" />
        </mxCell>
        <mxCell id="QC8opKdo3LrbvCKmcCdu-1" value="Calc II" style="html=1;whiteSpace=wrap;fillColor=#fa6800;shape=mxgraph.archimate3.application;appType=func;archiType=rounded;fontSize=14;strokeColor=#C73500;fontColor=#ffffff;" vertex="1" parent="1">
          <mxGeometry x="1136.5" y="192.5" width="80" height="75" as="geometry" />
        </mxCell>
        <mxCell id="QC8opKdo3LrbvCKmcCdu-2" value="Probability" style="html=1;whiteSpace=wrap;fillColor=#fa6800;shape=mxgraph.archimate3.application;appType=func;archiType=rounded;fontSize=14;strokeColor=#C73500;fontColor=#ffffff;" vertex="1" parent="1">
          <mxGeometry x="930" y="890" width="80" height="75" as="geometry" />
        </mxCell>
        <mxCell id="QC8opKdo3LrbvCKmcCdu-3" value="Linear Al" style="html=1;whiteSpace=wrap;fillColor=#fa6800;shape=mxgraph.archimate3.application;appType=func;archiType=rounded;fontSize=14;strokeColor=#C73500;fontColor=#ffffff;" vertex="1" parent="1">
          <mxGeometry x="670" y="362.5" width="80" height="75" as="geometry" />
        </mxCell>
      </root>
    </mxGraphModel>
  </diagram>
</mxfile>
